<svg width="37" height="36" viewBox="0 0 37 36" fill="none" xmlns="http://www.w3.org/2000/svg">
<g id="icon/image/grain_24px">
<path id="icon/image/grain_24px_2" fill-rule="evenodd" clip-rule="evenodd" d="M30.8334 9C30.8334 10.65 29.4459 12 27.75 12C26.0542 12 24.6667 10.65 24.6667 9C24.6667 7.35 26.0542 6 27.75 6C29.4459 6 30.8334 7.35 30.8334 9ZM6.16669 15C6.16669 13.35 7.55419 12 9.25002 12C10.9459 12 12.3334 13.35 12.3334 15C12.3334 16.65 10.9459 18 9.25002 18C7.55419 18 6.16669 16.65 6.16669 15ZM12.3334 21C12.3334 19.35 13.7209 18 15.4167 18C17.1125 18 18.5 19.35 18.5 21C18.5 22.65 17.1125 24 15.4167 24C13.7209 24 12.3334 22.65 12.3334 21ZM9.25002 24C7.55419 24 6.16669 25.35 6.16669 27C6.16669 28.65 7.55419 30 9.25002 30C10.9459 30 12.3334 28.65 12.3334 27C12.3334 25.35 10.9459 24 9.25002 24ZM21.5834 24C19.8875 24 18.5 25.35 18.5 27C18.5 28.65 19.8875 30 21.5834 30C23.2792 30 24.6667 28.65 24.6667 27C24.6667 25.35 23.2792 24 21.5834 24ZM24.6667 21C24.6667 19.35 26.0542 18 27.75 18C29.4459 18 30.8334 19.35 30.8334 21C30.8334 22.65 29.4459 24 27.75 24C26.0542 24 24.6667 22.65 24.6667 21ZM21.5834 12C19.8875 12 18.5 13.35 18.5 15C18.5 16.65 19.8875 18 21.5834 18C23.2792 18 24.6667 16.65 24.6667 15C24.6667 13.35 23.2792 12 21.5834 12ZM12.3334 9C12.3334 7.35 13.7209 6 15.4167 6C17.1125 6 18.5 7.35 18.5 9C18.5 10.65 17.1125 12 15.4167 12C13.7209 12 12.3334 10.65 12.3334 9Z" fill="black" fill-opacity="0.54"/>
</g>
</svg>
